<?xml version="1.0" standalone="no"?>
<!DOCTYPE svg PUBLIC "-//W3C//DTD SVG 20010904//EN"
 "http://www.w3.org/TR/2001/REC-SVG-20010904/DTD/svg10.dtd">
<svg version="1.0" xmlns="http://www.w3.org/2000/svg"
 width="1300.000000pt" height="1300.000000pt" viewBox="0 0 1300.000000 1300.000000"
 preserveAspectRatio="xMidYMid meet">
<metadata>
Created by potrace 1.14, written by Peter Selinger 2001-2017
</metadata>
<g transform="translate(0.000000,1300.000000) scale(0.100000,-0.100000)"
fill="#000000" stroke="none">
<path d="M4711 11521 c-14 -9 -17 -56 -7 -101 2 -14 8 -52 11 -85 3 -33 8 -73
11 -90 2 -16 6 -95 9 -175 5 -176 -11 -260 -50 -260 -7 0 -15 8 -18 18 -7 24
-57 163 -67 187 -4 11 -18 48 -30 82 -30 84 -43 94 -75 57 -22 -25 -155 -275
-155 -289 0 -3 -7 -21 -15 -41 -8 -20 -15 -42 -15 -50 0 -7 -4 -16 -10 -19 -5
-3 -10 -14 -10 -25 0 -10 -14 -51 -31 -91 -42 -98 -60 -111 -78 -56 -20 63
-25 102 -35 322 -2 39 -4 73 -5 78 -2 12 -53 -18 -88 -52 -18 -17 -35 -31 -37
-31 -7 0 -147 -147 -201 -210 -74 -87 -158 -216 -210 -325 -26 -55 -51 -108
-56 -117 -5 -10 -9 -24 -9 -33 0 -8 -13 -21 -30 -30 -16 -9 -30 -13 -30 -10 0
3 -8 -2 -19 -12 -68 -67 -112 -227 -137 -508 -3 -38 -7 -71 -8 -72 -2 -2 -16
16 -33 40 -152 211 -344 348 -556 396 -201 46 -416 14 -551 -83 -106 -76 -202
-243 -224 -391 -7 -49 -6 -206 1 -260 22 -153 136 -400 242 -525 62 -72 164
-167 218 -203 58 -39 63 -52 25 -78 -12 -7 -29 -21 -37 -29 -9 -8 -32 -27 -51
-41 -43 -33 -162 -150 -215 -214 -130 -155 -241 -341 -320 -535 -21 -51 -27
-57 -93 -91 -39 -19 -91 -51 -116 -70 -162 -121 -152 -442 26 -854 20 -45 38
-106 41 -140 4 -33 9 -71 12 -85 3 -14 9 -47 15 -75 13 -71 16 -85 30 -135 7
-25 14 -52 15 -62 5 -25 66 -201 78 -223 10 -18 10 -87 2 -150 -3 -16 -7 -55
-11 -85 -3 -30 -7 -73 -10 -95 -2 -22 -6 -65 -8 -95 -3 -30 -7 -77 -10 -105
-5 -46 -10 -104 -21 -270 -3 -33 -7 -89 -10 -125 -6 -81 -14 -208 -20 -325 -3
-49 -7 -124 -9 -165 -5 -75 -14 -284 -21 -475 -21 -550 -26 -2057 -11 -3060 4
-280 9 -600 10 -710 1 -110 6 -208 10 -218 16 -35 66 -52 109 -37 17 5 27 5
27 -1 0 -5 1712 -9 4611 -9 4229 0 4614 1 4645 16 42 20 49 44 60 229 3 50 7
110 9 135 26 330 26 1655 0 2650 -2 80 -7 321 -10 535 -9 606 -14 765 -40
1337 -1 42 -6 82 -10 87 -3 6 -1 11 6 11 7 0 8 4 2 13 -5 6 -9 38 -9 69 1 32
-1 58 -4 58 -3 0 -6 30 -6 68 -1 37 -4 101 -8 142 -4 41 -9 104 -11 140 -3 36
-6 84 -8 108 -2 30 4 60 22 100 14 31 29 59 33 60 5 2 8 10 8 17 0 7 6 26 14
42 59 116 150 412 171 558 7 48 12 87 21 140 4 22 8 144 10 270 1 127 7 255
13 285 5 30 8 100 7 155 -3 125 -28 194 -91 256 -33 32 -52 64 -76 129 -43
112 -137 295 -194 376 -25 36 -45 69 -45 74 0 4 -3 10 -7 12 -5 2 -26 26 -48
53 -93 117 -240 261 -334 327 l-23 16 59 79 c128 168 210 308 269 456 20 51
37 99 39 107 2 8 9 38 15 65 55 239 1 451 -155 609 -62 64 -155 128 -155 108
0 -4 -4 -1 -9 6 -4 7 -14 14 -22 15 -8 2 -18 5 -24 8 -28 17 -131 32 -220 33
-111 1 -164 -6 -245 -30 -85 -25 -100 -27 -100 -17 0 6 -25 52 -57 104 -160
267 -295 398 -525 510 -46 22 -90 44 -98 49 -56 31 -298 150 -352 174 -43 18
-103 44 -133 56 -109 46 -559 195 -649 215 -6 1 -18 4 -26 7 -28 10 -305 86
-340 93 -19 4 -39 10 -45 13 -5 4 -16 7 -22 8 -15 3 -198 53 -233 64 -64 21
-146 45 -155 46 -16 1 -69 16 -79 22 -5 3 -28 7 -51 9 -68 6 -76 -19 -60 -172
8 -70 8 -64 6 -92 -1 -29 -25 -30 -54 -2 -70 66 -205 139 -332 178 -69 21
-261 69 -300 75 -27 4 -94 25 -130 41 -137 61 -152 63 -140 18 3 -14 9 -53 12
-87 3 -33 12 -83 19 -111 7 -30 9 -54 4 -59 -21 -21 -521 149 -761 259 -200
92 -189 87 -195 72 -3 -8 15 -55 40 -106 25 -50 46 -95 47 -99 1 -4 5 -16 9
-27 4 -11 10 -37 14 -58 9 -50 -12 -58 -64 -23 -22 14 -42 26 -45 26 -16 0
-450 301 -475 329 -3 4 -23 19 -45 36 -22 16 -46 35 -53 42 -16 15 -13 15 -31
4z"/>
</g>
</svg>
