<?xml version="1.0" standalone="no"?>
<!DOCTYPE svg PUBLIC "-//W3C//DTD SVG 20010904//EN"
 "http://www.w3.org/TR/2001/REC-SVG-20010904/DTD/svg10.dtd">
<svg version="1.0" xmlns="http://www.w3.org/2000/svg"
 width="1392.000000pt" height="1392.000000pt" viewBox="0 0 1392.000000 1392.000000"
 preserveAspectRatio="xMidYMid meet">
<metadata>
Created by potrace 1.14, written by Peter Selinger 2001-2017
</metadata>
<g transform="translate(0.000000,1392.000000) scale(0.100000,-0.100000)"
fill="#000000" stroke="none">
<path d="M5157 11513 c-2 -5 -3 -17 -1 -28 2 -11 6 -45 10 -75 6 -61 8 -81 18
-155 6 -44 17 -193 17 -220 -1 -74 -12 -170 -23 -192 -28 -59 -40 -43 -107
141 -35 97 -70 181 -78 188 -19 15 -48 -19 -98 -117 -20 -38 -40 -74 -44 -80
-12 -16 -56 -129 -53 -137 1 -5 -2 -8 -7 -8 -5 0 -11 -10 -14 -22 -3 -13 -17
-57 -32 -98 -57 -160 -80 -189 -104 -132 -19 45 -31 153 -33 294 -2 107 -12
130 -44 100 -10 -10 -30 -25 -42 -34 -36 -24 -150 -137 -207 -202 -27 -32 -56
-64 -62 -71 -7 -8 -13 -16 -13 -20 0 -3 -9 -16 -21 -28 -55 -58 -197 -317
-215 -390 -5 -21 -18 -34 -48 -47 -42 -19 -76 -51 -76 -73 0 -7 -4 -17 -9 -22
-10 -11 -47 -133 -55 -180 -3 -16 -8 -50 -11 -75 -3 -25 -8 -56 -10 -70 -2
-14 -7 -59 -10 -100 -4 -41 -8 -76 -9 -77 -1 -2 -23 25 -49 60 -173 233 -398
371 -641 393 -79 7 -79 7 -86 5 -3 -1 -31 -3 -64 -6 -163 -10 -311 -82 -394
-190 -42 -54 -92 -147 -86 -157 3 -4 1 -8 -4 -8 -6 0 -13 -17 -17 -37 -4 -21
-9 -42 -12 -47 -16 -25 -22 -229 -10 -301 4 -22 10 -56 13 -75 4 -19 11 -41
17 -47 5 -7 7 -13 4 -13 -19 0 76 -205 138 -300 58 -88 68 -101 158 -191 42
-43 77 -81 77 -83 0 -2 -28 -25 -62 -49 -164 -119 -330 -296 -447 -477 -33
-52 -66 -101 -71 -107 -6 -7 -8 -13 -4 -13 4 0 0 -8 -9 -17 -8 -10 -19 -30
-22 -45 -4 -16 -11 -28 -16 -28 -5 0 -9 -4 -9 -9 0 -5 -12 -35 -27 -67 -15
-33 -28 -63 -29 -69 -1 -5 -14 -38 -27 -72 -14 -35 -23 -63 -20 -63 3 0 1 -6
-5 -13 -10 -11 -25 -64 -38 -136 -3 -13 -9 -32 -15 -43 -5 -10 -8 -18 -5 -18
3 0 0 -15 -5 -32 -5 -18 -12 -53 -15 -78 -3 -25 -8 -54 -10 -65 -29 -145 -25
-599 6 -706 5 -15 6 -29 4 -32 -3 -2 5 -44 16 -92 11 -49 22 -98 25 -109 2
-12 4 -21 6 -21 1 0 3 -9 5 -20 7 -52 84 -264 130 -361 19 -40 34 -75 34 -78
0 -3 13 -27 29 -53 31 -51 32 -56 17 -208 -4 -38 -9 -97 -12 -130 -4 -59 -8
-113 -19 -245 -11 -133 -16 -207 -19 -270 -2 -36 -4 -65 -5 -65 -1 0 -4 -49
-7 -110 -2 -60 -6 -141 -9 -180 -4 -72 -13 -285 -20 -480 -20 -515 -26 -2038
-11 -2990 4 -269 6 -528 6 -575 -1 -47 -1 -89 -1 -95 1 -5 2 -75 4 -155 2 -80
7 -153 12 -163 14 -34 81 -55 115 -37 14 7 20 7 20 0 0 -7 1442 -10 4620 -10
l4620 0 30 27 c32 30 32 31 45 203 6 80 11 162 22 415 9 204 9 1531 -1 1900
-9 361 -9 371 -1 384 3 6 3 11 -2 11 -4 0 -9 48 -9 108 -8 643 -27 1449 -39
1652 -2 41 -6 122 -9 180 -3 58 -8 143 -11 190 -3 47 -7 117 -10 155 -2 39 -4
70 -5 70 -1 0 -3 33 -5 72 l-4 72 58 93 c32 51 78 131 101 178 24 47 54 106
67 133 13 26 21 47 17 47 -3 0 -2 6 4 13 14 16 103 279 97 285 -3 3 0 11 6 19
6 7 9 13 6 13 -3 0 -1 15 4 33 11 35 13 44 34 162 24 132 26 152 29 360 4 202
-5 339 -29 451 -3 12 -7 39 -11 60 -28 183 -142 480 -261 683 -122 206 -329
431 -525 570 -27 20 -44 39 -41 45 4 6 27 39 51 73 59 86 143 235 174 313 28
70 41 105 37 105 -1 0 4 11 11 25 7 14 14 36 16 50 1 14 3 25 4 25 14 0 20
268 8 315 -4 14 -9 34 -11 45 -28 123 -165 293 -288 356 -111 56 -319 81 -451
54 -32 -7 -58 -10 -58 -8 0 3 -6 0 -13 -6 -8 -6 -16 -9 -19 -6 -3 3 -18 -1
-34 -10 -47 -24 -57 -19 -94 53 -19 37 -40 73 -47 79 -6 7 -21 29 -34 50 -45
74 -113 159 -180 225 -70 68 -149 128 -168 128 -6 0 -11 5 -11 10 0 6 -6 10
-14 10 -8 0 -16 3 -18 8 -1 4 -41 26 -88 49 -135 66 -240 118 -305 151 -124
64 -253 119 -264 113 -2 -2 -7 1 -10 6 -6 9 -197 79 -331 122 -176 56 -229 73
-241 75 -18 3 -126 35 -159 46 -23 8 -248 69 -274 75 -6 1 -18 4 -26 8 -8 3
-37 10 -65 17 -27 7 -57 14 -65 17 -8 4 -19 7 -25 8 -25 6 -303 86 -330 94
-16 6 -51 13 -76 16 -74 10 -77 2 -63 -202 6 -77 5 -83 -13 -83 -11 0 -30 12
-44 26 -37 39 -161 113 -245 146 -65 25 -195 61 -294 82 -101 21 -253 70 -277
88 -22 17 -73 27 -74 15 -4 -34 12 -165 30 -240 12 -52 2 -54 -105 -22 -48 15
-92 28 -98 30 -6 1 -18 5 -26 8 -8 3 -33 11 -55 17 -22 6 -47 14 -55 17 -8 4
-17 7 -20 8 -11 4 -51 19 -190 72 -80 31 -171 68 -202 83 -31 15 -59 25 -62
22 -4 -3 -6 1 -6 8 0 7 -3 10 -6 7 -4 -4 -20 3 -35 14 -16 11 -29 18 -29 14 0
-3 -10 1 -21 9 -21 14 -49 12 -49 -4 0 -5 20 -51 44 -102 89 -189 95 -270 15
-210 -13 9 -44 28 -68 41 -82 45 -424 283 -467 325 -6 6 -27 22 -47 36 -20 14
-37 28 -37 33 0 4 -11 7 -24 7 -14 0 -27 -3 -29 -7z"/>
</g>
</svg>
